<svg width="16" height="15" viewBox="0 0 16 15" fill="none" xmlns="http://www.w3.org/2000/svg">
<path d="M2.12128 12.1709L0.75 11.3244C1.32898 10.5052 1.8653 9.71326 2.4199 8.93773C3.18173 7.86728 3.94355 6.79137 4.74498 5.75095C4.8523 5.62785 4.98606 5.52528 5.13837 5.44929C5.29068 5.37331 5.45844 5.32545 5.63173 5.30856C7.05177 5.26214 8.47485 5.27306 9.89793 5.30856C10.0967 5.32448 10.2964 5.28799 10.4723 5.20358C10.6483 5.11916 10.7929 4.9905 10.8883 4.83342C12.0097 3.24412 13.1555 1.67122 14.3592 0L15.7639 0.800107C14.3774 2.75259 13.0488 4.64773 11.6745 6.53467C11.5673 6.6341 11.4391 6.71334 11.2973 6.76774C11.1555 6.82214 11.003 6.8506 10.8487 6.85144C9.42663 6.88239 8.00457 6.88239 6.5825 6.85144C6.38352 6.83594 6.18386 6.87357 6.0087 6.95959C5.83354 7.0456 5.69072 7.17615 5.59822 7.33478C4.46463 8.92134 3.30972 10.5161 2.12128 12.1709Z" fill="black"/>
<path d="M1 15V13.5391H15.4441V15H1Z" fill="black"/>
</svg>
