<svg width="18" height="19" viewBox="0 0 18 19" fill="none" xmlns="http://www.w3.org/2000/svg">
<g clip-path="url(#clip0_32_1786)">
<path d="M9 16.25C12.7279 16.25 15.75 13.2279 15.75 9.5C15.75 5.77208 12.7279 2.75 9 2.75C5.27208 2.75 2.25 5.77208 2.25 9.5C2.25 13.2279 5.27208 16.25 9 16.25Z" stroke="black" stroke-width="1.5" stroke-linecap="round" stroke-linejoin="round"/>
<path d="M6.1875 9.50009C6.1875 12.134 7.12477 14.4867 8.59781 16.0736C8.64898 16.1293 8.71115 16.1737 8.78038 16.2041C8.84961 16.2345 8.92439 16.2502 9 16.2502C9.07561 16.2502 9.15039 16.2345 9.21962 16.2041C9.28885 16.1737 9.35102 16.1293 9.40219 16.0736C10.8752 14.4867 11.8125 12.134 11.8125 9.50009C11.8125 6.86618 10.8752 4.51352 9.40219 2.92657C9.35102 2.87091 9.28885 2.82648 9.21962 2.79609C9.15039 2.76569 9.07561 2.75 9 2.75C8.92439 2.75 8.84961 2.76569 8.78038 2.79609C8.71115 2.82648 8.64898 2.87091 8.59781 2.92657C7.12477 4.51352 6.1875 6.86618 6.1875 9.50009Z" stroke="black" stroke-width="1.5" stroke-linecap="round" stroke-linejoin="round"/>
<path d="M2.63477 7.25H15.367" stroke="black" stroke-width="1.5" stroke-linecap="round" stroke-linejoin="round"/>
<path d="M2.63477 11.75H15.367" stroke="black" stroke-width="1.5" stroke-linecap="round" stroke-linejoin="round"/>
</g>
<defs>
<clipPath id="clip0_32_1786">
<rect width="18" height="18" fill="white" transform="translate(0 0.5)"/>
</clipPath>
</defs>
</svg>
