<svg width="17" height="17" viewBox="0 0 17 17" fill="none" xmlns="http://www.w3.org/2000/svg">
<g clip-path="url(#clip0_32_1576)">
<path d="M8.25 14.5C11.5637 14.5 14.25 11.8137 14.25 8.5C14.25 5.18629 11.5637 2.5 8.25 2.5C4.93629 2.5 2.25 5.18629 2.25 8.5C2.25 11.8137 4.93629 14.5 8.25 14.5Z" stroke="#878787" stroke-width="1.5" stroke-linecap="round" stroke-linejoin="round"/>
<path d="M7.75 8C7.88261 8 8.00979 8.05268 8.10355 8.14645C8.19732 8.24021 8.25 8.36739 8.25 8.5V11C8.25 11.1326 8.30268 11.2598 8.39645 11.3536C8.49021 11.4473 8.61739 11.5 8.75 11.5" stroke="#878787" stroke-width="1.5" stroke-linecap="round" stroke-linejoin="round"/>
<path d="M8 6.5C8.41421 6.5 8.75 6.16421 8.75 5.75C8.75 5.33579 8.41421 5 8 5C7.58579 5 7.25 5.33579 7.25 5.75C7.25 6.16421 7.58579 6.5 8 6.5Z" fill="#878787"/>
</g>
<defs>
<clipPath id="clip0_32_1576">
<rect width="16" height="16" fill="white" transform="translate(0.25 0.5)"/>
</clipPath>
</defs>
</svg>
