<svg width="208" height="30" viewBox="0 0 208 30" fill="none" xmlns="http://www.w3.org/2000/svg">
<path fill-rule="evenodd" clip-rule="evenodd" d="M7.69299 15.8823L19.3099 4.12312C20.0992 3.32419 21.1494 2.88488 22.2688 2.88488C23.3873 2.88488 24.4375 3.32377 25.226 4.12271L26.131 5.03888L27.9416 3.20612L27.0365 2.28995C25.7651 1.00289 24.0719 0.294067 22.2679 0.294067C20.4648 0.294485 18.7712 1.00331 17.4997 2.29078L5.88281 14.0495L7.69299 15.8823Z" fill="black"/>
<path fill-rule="evenodd" clip-rule="evenodd" d="M23.2353 8.02919L21.4161 6.19915L9.74466 17.9409C8.10564 19.5897 5.43882 19.5902 3.80022 17.9417C2.1612 16.2929 2.1612 13.6097 3.80022 11.9609L13.8716 1.82962L12.0525 0L1.98148 10.1313C-0.660494 12.789 -0.660494 17.114 1.98148 19.7714C3.25899 21.0565 4.96012 21.7647 6.77182 21.7647C8.58393 21.7647 10.2859 21.0561 11.5634 19.7709L23.2353 8.02919Z" fill="black"/>
<path fill-rule="evenodd" clip-rule="evenodd" d="M34.7828 10.2283C33.5057 8.94314 31.8046 8.23535 29.992 8.23535C28.1799 8.23577 26.4779 8.94355 25.2004 10.2291L13.5293 21.9707L15.3476 23.8008L27.0196 12.0588C28.659 10.4099 31.3254 10.4104 32.964 12.0584C33.7566 12.8557 34.1931 13.9172 34.1931 15.0483C34.1931 16.1797 33.7566 17.2416 32.964 18.0389L22.893 28.1704L24.7122 30.0001L34.7828 19.869C37.4252 17.2112 37.4252 12.8862 34.7828 10.2283Z" fill="black"/>
<path fill-rule="evenodd" clip-rule="evenodd" d="M29.0729 14.1177L17.4562 25.8769C15.8245 27.5277 13.1707 27.5285 11.5398 25.8773L10.6348 24.9611L8.82422 26.7939L9.72929 27.71C11.0008 28.9971 12.6938 29.7059 14.4982 29.7059C16.3014 29.7055 17.9944 28.9967 19.2663 27.7092L30.883 15.9504L29.0729 14.1177Z" fill="black"/>
<path fill-rule="evenodd" clip-rule="evenodd" d="M47.4927 18.0619C47.6425 18.8123 47.9937 19.3997 48.5453 19.8229C49.0965 20.247 49.8219 20.4586 50.7214 20.4586C51.6065 20.4586 52.2907 20.2504 52.7744 19.8334C53.2581 19.4169 53.4998 18.8681 53.4998 18.1871C53.4998 17.8537 53.4351 17.5723 53.3059 17.3431C53.1762 17.1138 52.9959 16.9194 52.7645 16.7594C52.5324 16.6003 52.2467 16.4643 51.9062 16.3534C51.5657 16.2421 51.1841 16.1242 50.7618 15.999L49.6589 15.6866C49.0047 15.5061 48.4189 15.2873 47.9015 15.0299C47.3836 14.773 46.941 14.4706 46.5734 14.1234C46.2058 13.7762 45.9263 13.3768 45.7357 12.9251C45.5451 12.4737 45.4495 11.9488 45.4495 11.3517C45.4495 10.7265 45.5722 10.15 45.8176 9.62182C46.0625 9.09444 46.41 8.64222 46.8595 8.26727C47.3091 7.89231 47.8537 7.59713 48.4943 7.38131C49.134 7.16675 49.8557 7.05884 50.6597 7.05884C52.1717 7.05884 53.3701 7.4233 54.256 8.15264C55.1411 8.8824 55.6586 9.85821 55.8088 11.0809L53.3569 11.2892C53.2067 10.664 52.9074 10.1777 52.4578 9.8305C52.0083 9.48325 51.3817 9.30942 50.5781 9.30942C49.8289 9.30942 49.2431 9.48661 48.8211 9.841C48.3983 10.1954 48.1872 10.6505 48.1872 11.206C48.1872 11.5256 48.2489 11.7926 48.3716 12.008C48.4943 12.2238 48.6709 12.4111 48.9026 12.5707C49.134 12.7306 49.4168 12.873 49.7503 12.9977C50.0841 13.1228 50.4621 13.2555 50.8844 13.3941L51.9268 13.7275C52.5801 13.9357 53.1696 14.1545 53.6937 14.3837C54.2181 14.613 54.6644 14.8876 55.032 15.2071C55.4001 15.5267 55.6829 15.9088 55.8801 16.3534C56.0777 16.7981 56.1765 17.3469 56.1765 17.9998C56.1765 18.6947 56.0402 19.3304 55.7681 19.9065C55.4952 20.4834 55.1144 20.973 54.6236 21.3757C54.1333 21.7788 53.5512 22.0916 52.8765 22.3133C52.2022 22.5354 51.4567 22.6471 50.6395 22.6471C49.1274 22.6471 47.8673 22.286 46.8595 21.5633C45.8513 20.8407 45.2318 19.7503 45 18.2912L47.4927 18.0619Z" fill="black"/>
<path fill-rule="evenodd" clip-rule="evenodd" d="M66.7241 9.59312C65.9891 9.59312 65.3319 9.73146 64.7533 10.0073C64.1743 10.2836 63.6842 10.6664 63.2829 11.1563C62.8809 11.6465 62.5743 12.2266 62.3632 12.8953C62.1525 13.5653 62.0471 14.2934 62.0471 15.08C62.0471 15.867 62.1558 16.5984 62.3739 17.275C62.5911 17.9513 62.9014 18.5377 63.3031 19.035C63.7043 19.5316 64.1949 19.9215 64.7739 20.2049C65.3521 20.4874 66.0093 20.6287 66.7447 20.6287C67.4801 20.6287 68.1369 20.4945 68.7159 20.2254C69.2941 19.9562 69.7846 19.58 70.1863 19.0965C70.5879 18.6137 70.8978 18.0303 71.1155 17.3474C71.3332 16.664 71.4423 15.915 71.4423 15.1009C71.4423 14.3001 71.3332 13.5616 71.1155 12.8853C70.8978 12.2095 70.5879 11.6294 70.1863 11.1462C69.7846 10.6635 69.2908 10.2836 68.7052 10.0073C68.12 9.73146 67.4595 9.59312 66.7241 9.59312ZM66.7447 7.35291C67.8476 7.35291 68.8554 7.54307 69.7678 7.92341C70.6797 8.30374 71.4558 8.83579 72.0962 9.5204C72.7357 10.2054 73.2324 11.0246 73.5871 11.9788C73.941 12.933 74.118 13.977 74.118 15.1109C74.118 16.287 73.9307 17.3482 73.5567 18.2953C73.1814 19.2428 72.6476 20.0619 71.953 20.7532L73.9139 23.0975V23.8235H71.4221L70.0534 22.1229C69.5768 22.344 69.0657 22.5166 68.5217 22.6411C67.9768 22.7657 67.3912 22.8279 66.7653 22.8279C65.6348 22.8279 64.6171 22.6374 63.7117 22.2574C62.806 21.8771 62.0364 21.3446 61.4035 20.66C60.7701 19.9754 60.28 19.16 59.9331 18.2121C59.5858 17.265 59.4121 16.2314 59.4121 15.1109C59.4121 13.977 59.5858 12.9367 59.9331 11.9888C60.28 11.0422 60.7734 10.2259 61.4138 9.54129C62.0533 8.85669 62.8261 8.32088 63.7319 7.93344C64.6377 7.54683 65.6418 7.35291 66.7447 7.35291Z" fill="black"/>
<path fill-rule="evenodd" clip-rule="evenodd" d="M84.1167 20.5008C85.1616 20.5008 85.9757 20.1713 86.5592 19.5113C87.1424 18.8513 87.4344 17.8408 87.4344 16.4792V7.35291H89.9991V16.5418C89.9991 17.6254 89.8633 18.5524 89.5919 19.3236C89.32 20.0944 88.9337 20.7267 88.4317 21.22C87.9298 21.7133 87.3122 22.0744 86.5797 22.3036C85.8469 22.5328 85.0259 22.647 84.1167 22.647C83.1936 22.647 82.3693 22.5328 81.6439 22.3036C80.9176 22.0744 80.3037 21.7133 79.8017 21.22C79.2998 20.7267 78.9131 20.0944 78.6412 19.3236C78.3697 18.5524 78.2344 17.6254 78.2344 16.5418V7.35291H80.7991V16.4792C80.7991 17.8408 81.0907 18.8513 81.6742 19.5113C82.2578 20.1713 83.0718 20.5008 84.1167 20.5008Z" fill="black"/>
<path fill-rule="evenodd" clip-rule="evenodd" d="M97.3471 15.9422H102.255L101.447 13.6073C101.129 12.6928 100.874 11.9483 100.681 11.3751C100.487 10.8015 100.315 10.2964 100.163 9.85942H99.5215C99.4385 10.0913 99.3555 10.3237 99.2729 10.5556C99.1899 10.7879 99.0968 11.0475 98.9934 11.3339C98.8895 11.6207 98.776 11.9483 98.6517 12.3173C98.5273 12.6854 98.3755 13.1158 98.1961 13.6073L97.3471 15.9422ZM92.6465 21.6362L97.927 7.64709H101.841L107.058 21.6362V22.353H104.491L103 18.1541H96.5602L95.0696 22.353H92.6465V21.6362Z" fill="black"/>
<path fill-rule="evenodd" clip-rule="evenodd" d="M112.838 14.3651H115.073C116.058 14.3651 116.833 14.1856 117.401 13.8274C117.968 13.4688 118.252 12.8836 118.252 12.071C118.252 11.2457 117.965 10.6708 117.39 10.346C116.816 10.0217 116.044 9.85906 115.073 9.85906H112.838V14.3651ZM121.471 22.353H118.99L114.499 16.5771H112.838V22.353H110.295V7.64709H115.073C115.825 7.64709 116.54 7.69827 117.216 7.80061C117.893 7.90296 118.505 8.1386 119.052 8.50712C120.213 9.27141 120.795 10.4253 120.795 11.9675C120.795 12.6368 120.696 13.2204 120.497 13.7189C120.299 14.217 120.036 14.64 119.708 14.9883C119.379 15.3366 119 15.6197 118.57 15.8376C118.139 16.0563 117.691 16.2201 117.226 16.3291L121.471 21.6357V22.353Z" fill="black"/>
<path fill-rule="evenodd" clip-rule="evenodd" d="M124.705 7.64709H134.267V9.89986H127.234V13.7505H133.773V15.9624H127.234V20.0998H134.411V22.353H124.705V7.64709Z" fill="black"/>
<path fill-rule="evenodd" clip-rule="evenodd" d="M140.139 18.0619C140.289 18.8123 140.64 19.3997 141.192 19.8229C141.743 20.247 142.469 20.4586 143.368 20.4586C144.253 20.4586 144.937 20.2504 145.421 19.8334C145.904 19.4169 146.146 18.8681 146.146 18.1871C146.146 17.8537 146.082 17.5723 145.952 17.3431C145.823 17.1138 145.642 16.9194 145.411 16.7594C145.179 16.6003 144.893 16.4643 144.553 16.3534C144.212 16.2421 143.83 16.1242 143.408 15.999L142.305 15.6866C141.651 15.5061 141.065 15.2873 140.548 15.0299C140.03 14.773 139.587 14.4706 139.22 14.1234C138.852 13.7762 138.573 13.3768 138.382 12.9251C138.192 12.4737 138.096 11.9488 138.096 11.3517C138.096 10.7265 138.219 10.15 138.464 9.62182C138.709 9.09444 139.056 8.64222 139.506 8.26727C139.955 7.89231 140.5 7.59713 141.141 7.38131C141.78 7.16675 142.502 7.05884 143.306 7.05884C144.818 7.05884 146.016 7.4233 146.902 8.15264C147.787 8.8824 148.305 9.85821 148.455 11.0809L146.003 11.2892C145.853 10.664 145.554 10.1777 145.104 9.8305C144.655 9.48325 144.028 9.30942 143.224 9.30942C142.475 9.30942 141.889 9.48661 141.467 9.841C141.045 10.1954 140.834 10.6505 140.834 11.206C140.834 11.5256 140.895 11.7926 141.018 12.008C141.141 12.2238 141.317 12.4111 141.549 12.5707C141.78 12.7306 142.063 12.873 142.397 12.9977C142.731 13.1228 143.109 13.2555 143.531 13.3941L144.573 13.7275C145.227 13.9357 145.816 14.1545 146.34 14.3837C146.864 14.613 147.311 14.8876 147.678 15.2071C148.046 15.5267 148.329 15.9088 148.527 16.3534C148.724 16.7981 148.823 17.3469 148.823 17.9998C148.823 18.6947 148.687 19.3304 148.414 19.9065C148.141 20.4834 147.76 20.973 147.27 21.3757C146.779 21.7788 146.197 22.0916 145.523 22.3133C144.848 22.5354 144.103 22.6471 143.286 22.6471C141.774 22.6471 140.514 22.286 139.506 21.5633C138.498 20.8407 137.878 19.7503 137.646 18.2912L140.139 18.0619Z" fill="black"/>
<path fill-rule="evenodd" clip-rule="evenodd" d="M155.252 14.4879H157.754C158.213 14.4879 158.633 14.4508 159.016 14.3761C159.397 14.3018 159.731 14.1768 160.016 14.0006C160.301 13.8248 160.523 13.5879 160.684 13.2899C160.843 12.9924 160.923 12.6268 160.923 12.1935C160.923 11.747 160.843 11.3718 160.684 11.0673C160.523 10.7627 160.304 10.5226 160.027 10.3464C159.748 10.1702 159.418 10.0451 159.037 9.97084C158.654 9.89656 158.241 9.859 157.796 9.859H155.252V14.4879ZM152.646 7.64709H158.109C159.123 7.64709 159.974 7.76305 160.663 7.99539C161.351 8.22731 161.906 8.54795 162.33 8.95815C162.754 9.36751 163.06 9.84869 163.247 10.4021C163.435 10.9546 163.529 11.5522 163.529 12.1939C163.529 12.959 163.4 13.6242 163.143 14.1908C162.886 14.7574 162.514 15.2249 162.028 15.5939C161.541 15.9624 160.951 16.2389 160.256 16.4233C159.561 16.6078 158.776 16.6998 157.9 16.6998H155.252V22.353H152.646V7.64709Z" fill="black"/>
<path fill-rule="evenodd" clip-rule="evenodd" d="M168.818 15.9422H173.725L172.918 13.6073C172.6 12.6928 172.344 11.9483 172.151 11.3751C171.958 10.8015 171.785 10.2964 171.634 9.85942H170.992C170.909 10.0913 170.826 10.3237 170.743 10.5556C170.661 10.7879 170.567 11.0475 170.464 11.3339C170.36 11.6207 170.247 11.9483 170.122 12.3173C169.998 12.6854 169.846 13.1158 169.667 13.6073L168.818 15.9422ZM164.117 21.6362L169.398 7.64709H173.311L178.529 21.6362V22.353H175.962L174.471 18.1541H168.031L166.54 22.353H164.117V21.6362Z" fill="black"/>
<path fill-rule="evenodd" clip-rule="evenodd" d="M194.118 18.4647C193.885 19.0389 193.578 19.5792 193.201 20.086C192.822 20.5929 192.365 21.0369 191.828 21.4161C191.292 21.7953 190.669 22.0952 189.961 22.3157C189.253 22.5363 188.465 22.647 187.598 22.647C186.498 22.647 185.498 22.4554 184.597 22.0724C183.696 21.6904 182.927 21.1604 182.29 20.4842C181.653 19.8072 181.161 19.0013 180.815 18.0649C180.468 17.1289 180.295 16.114 180.295 15.0202C180.295 13.9272 180.468 12.9123 180.815 11.9759C181.161 11.0399 181.656 10.2299 182.3 9.54628C182.944 8.86348 183.717 8.3265 184.617 7.93739C185.518 7.54746 186.526 7.35291 187.64 7.35291C189.263 7.35291 190.622 7.72921 191.715 8.48057C192.809 9.23193 193.582 10.2299 194.036 11.4736L191.416 11.9858C191.058 11.2345 190.559 10.643 189.92 10.2125C189.28 9.78214 188.506 9.56693 187.598 9.56693C186.87 9.56693 186.22 9.70655 185.649 9.98578C185.078 10.265 184.597 10.6496 184.205 11.1399C183.813 11.6298 183.513 12.2085 183.307 12.876C183.101 13.5431 182.998 14.2577 182.998 15.0202C182.998 15.7964 183.104 16.5147 183.318 17.1752C183.53 17.8361 183.84 18.4073 184.246 18.891C184.652 19.3743 185.143 19.7519 185.721 20.0241C186.299 20.2967 186.959 20.433 187.702 20.433C188.665 20.433 189.459 20.2004 190.085 19.7357C190.711 19.271 191.196 18.7039 191.539 18.0339L194.118 18.4647Z" fill="black"/>
<mask id="mask0_204_38" style="mask-type:luminance" maskUnits="userSpaceOnUse" x="197" y="7" width="11" height="16">
<path d="M197.482 7.46948H207.244V22.3178H197.482V7.46948Z" fill="white"/>
</mask>
<g mask="url(#mask0_204_38)">
<path fill-rule="evenodd" clip-rule="evenodd" d="M197.482 7.46948H207.099V9.74407H200.026V13.632H206.602V15.8653H200.026V20.0428H207.244V22.3178H197.482V7.46948Z" fill="black"/>
</g>
</svg>
